<svg width="80" height="80" viewBox="0 0 80 80" fill="none" xmlns="http://www.w3.org/2000/svg">
<g clip-path="url(#clip0_48_1905)">
<rect width="80" height="80" rx="10" fill="black"/>
<path d="M49.2187 45.7145C49.0917 45.7163 48.9657 45.6868 48.8489 45.6277C48.7321 45.5687 48.6271 45.4814 48.5406 45.3716L40.5 35.9088L32.4593 45.3716C32.0718 45.8288 31.4712 45.8288 31.0837 45.3716C30.6962 44.9145 30.6962 44.2059 31.0837 43.7488L39.8218 33.4859C40.2093 33.0288 40.81 33.0288 41.1975 33.4859L49.9162 43.7716C50.3037 44.2288 50.3037 44.9374 49.9162 45.3945C49.7225 45.6231 49.4706 45.7374 49.2381 45.7374L49.2187 45.7145Z" fill="white"/>
</g>
<defs>
<clipPath id="clip0_48_1905">
<rect width="80" height="80" fill="white"/>
</clipPath>
</defs>
</svg>
